<svg width="48" height="48" viewBox="0 0 48 48" fill="none" xmlns="http://www.w3.org/2000/svg">
<path d="M26.1871 5.5C31.9401 5.5 36.8933 7.12402 40.4153 9.93144C43.9513 12.7263 45.9999 16.7423 45.9999 21.1108C46.014 25.5548 43.6707 29.4575 40.0505 32.0635C36.4162 34.682 31.5472 36.1424 26.1871 36.1424C20.0832 36.1424 14.4284 34.1155 14.4284 34.1155V40.6368C15.4668 40.9137 17.1927 41.518 16.0982 42.5H7.84751C6.76706 41.518 8.35266 40.9389 9.54536 40.6368V12.9906C6.76706 14.9294 5.34985 16.6164 4.6202 17.8627C5.46211 20.305 3.87652 20.1917 3.87652 20.1917L1 16.0373C1 16.0373 11.2011 5.5 26.1871 5.5ZM25.6819 33.5616C29.8914 33.5616 33.5397 32.139 36.0514 29.8855C38.5631 27.6068 39.9663 24.6484 39.9803 21.0478C39.9663 17.3591 38.6473 14.174 36.2338 11.7821C33.8203 9.40269 30.2422 7.84161 25.6819 7.82902C21.9354 7.81643 17.2909 8.96206 14.4284 10.8127V31.5725C17.0383 32.7433 20.9953 33.5742 25.6819 33.5616Z" fill="white"/>
</svg>
