<svg width="48" height="48" viewBox="0 0 48 48" fill="none" xmlns="http://www.w3.org/2000/svg">
<path d="M45.0811 13.34C44.8436 12.3908 44.3597 11.5211 43.6785 10.8188C42.9972 10.1165 42.1427 9.60637 41.2011 9.34C37.7611 8.5 24.0011 8.5 24.0011 8.5C24.0011 8.5 10.2411 8.5 6.80114 9.42C5.85964 9.68637 5.0051 10.1965 4.32384 10.8988C3.64258 11.6011 3.15872 12.4708 2.92114 13.42C2.29157 16.9111 1.98362 20.4526 2.00114 24C1.9787 27.5741 2.28668 31.1426 2.92114 34.66C3.18306 35.5797 3.67776 36.4163 4.35743 37.089C5.03711 37.7616 5.87878 38.2476 6.80114 38.5C10.2411 39.42 24.0011 39.42 24.0011 39.42C24.0011 39.42 37.7611 39.42 41.2011 38.5C42.1427 38.2336 42.9972 37.7235 43.6785 37.0212C44.3597 36.3189 44.8436 35.4492 45.0811 34.5C45.7059 31.0352 46.0138 27.5207 46.0011 24C46.0236 20.4259 45.7156 16.8574 45.0811 13.34Z" stroke="white" stroke-width="3" stroke-linecap="round" stroke-linejoin="round"/>
<path d="M19.5011 30.54L31.0011 24L19.5011 17.46V30.54Z" stroke="white" stroke-width="3" stroke-linecap="round" stroke-linejoin="round"/>
</svg>
