<svg width="32" height="24" viewBox="0 0 32 24" fill="none" xmlns="http://www.w3.org/2000/svg">
<g clip-path="url(#clip0_375_1335)">
<path d="M7.27275 23.8819V11.5822L3.43837 8.09248L0 6.15594V21.7113C0 22.9123 0.978125 23.8819 2.18187 23.8819H7.27275Z" fill="#4285F4"/>
<path d="M24.7272 23.8819H29.8181C31.0255 23.8819 32 22.9087 32 21.7113V6.15607L28.1055 8.37414L24.7272 11.5822V23.8819Z" fill="#34A853"/>
<path d="M7.27273 11.5822L6.75098 6.77633L7.27273 2.17667L16 8.68825L24.7272 2.17667L25.3109 6.528L24.7272 11.5822L16 18.0938L7.27273 11.5822Z" fill="#EA4335"/>
<path d="M24.7272 2.17666V11.5822L32 6.15593V3.26188C32 0.577733 28.92 -0.952422 26.7637 0.657318L24.7272 2.17666Z" fill="#FBBC04"/>
<path d="M0 6.15596L3.34487 8.65171L7.27275 11.5822V2.17668L5.23625 0.657345C3.07625 -0.95252 0 0.577759 0 3.26178V6.15596Z" fill="#C5221F"/>
</g>
<defs>
<clipPath id="clip0_375_1335">
<rect width="32" height="24" fill="white"/>
</clipPath>
</defs>
</svg>
