<svg width="24" height="24" viewBox="0 0 24 24" fill="none" xmlns="http://www.w3.org/2000/svg">
<path d="M17.0996 8.54205C18.7959 8.54205 20.4235 9.22101 21.624 10.4297C22.8245 11.6385 23.4999 13.2784 23.5 14.9893V22.5948H19.9004V14.9893C19.9003 14.2438 19.6056 13.5283 19.0811 13.0001C18.5562 12.4716 17.8433 12.1739 17.0996 12.1739C16.356 12.174 15.6439 12.4717 15.1191 13.0001C14.5945 13.5283 14.2999 14.2437 14.2998 14.9893V22.5948H10.7002V14.9893C10.7002 13.2783 11.3756 11.6386 12.5762 10.4297C13.7766 9.22111 15.4035 8.54216 17.0996 8.54205ZM5.09961 9.70026V22.5948H1.5V9.70026H5.09961ZM3.2998 1.59479C4.29058 1.59479 5.09942 2.40432 5.09961 3.41022C5.09961 4.41628 4.2907 5.22662 3.2998 5.22662C2.309 5.22652 1.5 4.41621 1.5 3.41022C1.50019 2.40439 2.30912 1.59489 3.2998 1.59479Z" fill="#0A66C2" stroke="#0A66C2" stroke-linecap="round" stroke-linejoin="round"/>
</svg>
