<svg width="30" height="30" viewBox="0 0 30 30" fill="none" xmlns="http://www.w3.org/2000/svg">
<g clip-path="url(#clip0_254_299)">
<path d="M22.5794 25.1104V23.1604C22.5794 22.126 22.1685 21.134 21.4371 20.4026C20.7058 19.6713 19.7138 19.2604 18.6794 19.2604H10.8794C9.84509 19.2604 8.85311 19.6713 8.12171 20.4026C7.39032 21.134 6.97943 22.126 6.97943 23.1604V25.1104" fill="white"/>
<path d="M14.7794 15.3604C16.9333 15.3604 18.6794 13.6143 18.6794 11.4604C18.6794 9.30645 16.9333 7.56036 14.7794 7.56036C12.6255 7.56036 10.8794 9.30645 10.8794 11.4604C10.8794 13.6143 12.6255 15.3604 14.7794 15.3604Z" fill="white"/>
<path d="M22.5794 25.1104V23.1604C22.5794 22.126 22.1685 21.134 21.4371 20.4026C20.7058 19.6713 19.7138 19.2604 18.6794 19.2604H10.8794C9.84509 19.2604 8.85311 19.6713 8.12171 20.4026C7.39032 21.134 6.97943 22.126 6.97943 23.1604V25.1104H22.5794ZM18.6794 11.4604C18.6794 13.6143 16.9333 15.3604 14.7794 15.3604C12.6255 15.3604 10.8794 13.6143 10.8794 11.4604C10.8794 9.30645 12.6255 7.56036 14.7794 7.56036C16.9333 7.56036 18.6794 9.30645 18.6794 11.4604Z" stroke="white" stroke-width="1.95" stroke-linecap="round" stroke-linejoin="round"/>
</g>
<path d="M23.8232 1.46387H30V30H0V1.46387H6.17676V0H23.8232V1.46387ZM1.5 28.5H28.5V2.96387H23.8232V4.39062H6.17676V2.96387H1.5V28.5Z" fill="url(#paint0_linear_254_299)"/>
<path d="M23.8232 1.46387H30V30H0V1.46387H6.17676V0H23.8232V1.46387ZM1.5 28.5H28.5V2.96387H23.8232V4.39062H6.17676V2.96387H1.5V28.5Z" fill="url(#paint1_linear_254_299)"/>
<defs>
<linearGradient id="paint0_linear_254_299" x1="6.17651" y1="2.19512" x2="23.8236" y2="2.19512" gradientUnits="userSpaceOnUse">
<stop stop-color="white"/>
<stop offset="0.1" stop-color="white"/>
<stop offset="0.1" stop-color="#0F0F0F"/>
<stop offset="0.9" stop-color="#0F0F0F"/>
<stop offset="0.9" stop-color="white"/>
<stop offset="1" stop-color="white"/>
</linearGradient>
<linearGradient id="paint1_linear_254_299" x1="15" y1="0" x2="15" y2="4.39024" gradientUnits="userSpaceOnUse">
<stop stop-color="white"/>
<stop offset="0.33" stop-color="white"/>
<stop offset="0.33" stop-color="#0F0F0F" stop-opacity="0"/>
<stop offset="0.665" stop-color="#0F0F0F" stop-opacity="0"/>
<stop offset="0.6675" stop-color="white"/>
<stop offset="1" stop-color="white"/>
</linearGradient>
<clipPath id="clip0_254_299">
<rect width="22.9412" height="19.0244" fill="white" transform="translate(3.52942 6.58536)"/>
</clipPath>
</defs>
</svg>
