<svg width="27" height="26" viewBox="0 0 27 26" fill="none" xmlns="http://www.w3.org/2000/svg">
<path d="M18.3562 6.19791H23.3062C24.6732 6.19791 25.7812 7.35451 25.7812 8.78125V12.0104M18.3562 6.19791V3.61458C18.3562 2.92944 18.3562 1.67709 18.3562 1.03126C17.7375 1.03125 16.5377 1.03125 15.8812 1.03125H10.9312C10.2748 1.03125 9.38437 1.03125 8.45625 1.03125C8.45625 1.67709 8.45625 2.92944 8.45625 3.61458V6.19791M18.3562 6.19791H8.45625M8.45625 6.19791H3.50625C2.13935 6.19791 1.03125 7.35451 1.03125 8.78125V12.0104M25.7812 12.0104V21.6979C25.7812 23.1247 24.6732 24.2813 23.3062 24.2813H3.50625C2.13935 24.2813 1.03125 23.1247 1.03125 21.6979V12.0104M25.7812 12.0104H15.8812L13.4062 10.0729L10.9312 12.0104H1.03125" stroke="white" stroke-width="2.0625" stroke-linecap="round"/>
</svg>
